<?xml version="1.0" standalone="no"?>
<!DOCTYPE svg PUBLIC "-//W3C//DTD SVG 20010904//EN"
 "http://www.w3.org/TR/2001/REC-SVG-20010904/DTD/svg10.dtd">
<svg version="1.0" xmlns="http://www.w3.org/2000/svg"
 width="640.000000pt" height="640.000000pt" viewBox="0 0 640.000000 640.000000"
 preserveAspectRatio="xMidYMid meet">
<metadata>
Created by potrace 1.11, written by Peter Selinger 2001-2013
</metadata>
<g transform="translate(0.000000,640.000000) scale(0.100000,-0.100000)"
fill="#000000" stroke="none">
<path d="M1790 4960 l0 -350 -350 0 -350 0 0 -300 0 -300 -350 0 -350 0 0
-1410 0 -1410 710 0 710 0 0 300 0 300 1390 0 1390 0 0 -250 0 -250 710 0 710
0 0 1360 0 1360 -300 0 -300 0 0 300 0 300 -400 0 -400 0 0 350 0 350 -1410 0
-1410 0 0 -350z m160 -1165 l0 -145 -145 0 -145 0 0 145 0 145 145 0 145 0 0
-145z m2700 0 l0 -145 -145 0 -145 0 0 145 0 145 145 0 145 0 0 -145z"/>
</g>
</svg>
